<?xml version="1.0" encoding="UTF-8"?>
<!DOCTYPE svg PUBLIC "-//W3C//DTD SVG 1.1//EN" "http://www.w3.org/Graphics/SVG/1.1/DTD/svg11.dtd">
<svg xmlns="http://www.w3.org/2000/svg" version="1.1" width="1250px" height="412px" style="shape-rendering:geometricPrecision; text-rendering:geometricPrecision; image-rendering:optimizeQuality; fill-rule:evenodd; clip-rule:evenodd" xmlns:xlink="http://www.w3.org/1999/xlink">
<g><path style="opacity:1" fill="#f2f9f1" d="M -0.5,-0.5 C 416.167,-0.5 832.833,-0.5 1249.5,-0.5C 1249.5,110.5 1249.5,221.5 1249.5,332.5C 1165.93,376.847 1076.93,394.347 982.5,385C 929.692,378.458 881.026,360.958 836.5,332.5C 836.027,331.094 835.027,330.427 833.5,330.5C 833.167,330.5 832.833,330.5 832.5,330.5C 831.947,328.448 830.947,328.115 829.5,329.5C 805.057,346.712 778.057,358.545 748.5,365C 655.567,389.383 564.567,383.716 475.5,348C 462.334,342.252 449.667,335.752 437.5,328.5C 437.027,327.094 436.027,326.427 434.5,326.5C 433.508,326.672 432.842,326.338 432.5,325.5C 432.167,324.833 431.833,324.167 431.5,323.5C 431.167,322.167 430.833,322.167 430.5,323.5C 430.5,324.167 430.5,324.833 430.5,325.5C 330.058,387.397 222.725,402.897 108.5,372C 69.9999,361.785 33.6665,346.618 -0.5,326.5C -0.5,217.5 -0.5,108.5 -0.5,-0.5 Z"/></g>
<g><path style="opacity:1" fill="#fcfdfb" d="M 430.5,323.5 C 430.833,323.5 431.167,323.5 431.5,323.5C 431.833,324.167 432.167,324.833 432.5,325.5C 431.833,325.5 431.167,325.5 430.5,325.5C 430.5,324.833 430.5,324.167 430.5,323.5 Z"/></g>
<g><path style="opacity:1" fill="#f9fcf9" d="M 434.5,326.5 C 436.027,326.427 437.027,327.094 437.5,328.5C 435.973,328.573 434.973,327.906 434.5,326.5 Z"/></g>
<g><path style="opacity:1" fill="#fcfdfb" d="M 829.5,329.5 C 830.947,328.115 831.947,328.448 832.5,330.5C 831.609,329.89 830.609,329.557 829.5,329.5 Z"/></g>
<g><path style="opacity:1" fill="#f9fcf8" d="M 833.5,330.5 C 835.027,330.427 836.027,331.094 836.5,332.5C 834.973,332.573 833.973,331.906 833.5,330.5 Z"/></g>
</svg>
